<?xml version="1.0" encoding="iso-8859-1"?>
<!-- Generator: Adobe Illustrator 19.0.0, SVG Export Plug-In . SVG Version: 6.00 Build 0)  -->
<svg version="1.1" id="Capa_1" xmlns="http://www.w3.org/2000/svg" xmlns:xlink="http://www.w3.org/1999/xlink" x="0px" y="0px"
	 viewBox="0 0 367.695 367.695" style="enable-background:new 0 0 367.695 367.695;" xml:space="preserve">
<g id="XMLID_527_">
	<g id="XMLID_530_">
		<path id="XMLID_40_" style="fill:#FFC170;" d="M236.881,282.921c-9.764,9.763-25.593,9.763-35.355,0l0,0
			c-9.764-9.764-9.764-25.593,0-35.355l77.781-77.782c9.764-9.763,25.593-9.763,35.355,0l0,0c9.764,9.764,9.764,25.593,0,35.355
			L236.881,282.921z"/>
		<path id="XMLID_39_" style="fill:#FFD6A0;" d="M113.137,53.267l-91.924,91.924l42.427,42.426
			c-6.918,9.047-6.248,22.037,2.026,30.311l111.11,111.111c9.013,9.013,23.623,9.013,32.636,0c2.974-2.974,4.959-6.558,5.971-10.347
			l10.349,10.347c9.012,9.013,23.623,9.012,32.635,0c2.973-2.974,4.959-6.557,5.971-10.347l2.188,2.188
			c9.014,9.012,23.624,9.012,32.637,0c9.011-9.013,9.012-23.624-0.001-32.636l-2.188-2.188c3.79-1.012,7.374-2.998,10.348-5.972
			c9.012-9.012,9.013-23.622,0-32.634L113.137,53.267z"/>
		<path id="XMLID_38_" style="fill:#FFC170;" d="M69.294,221.556L95.349,195.5c9.012-9.011,23.623-9.012,32.635,0
			c2.975,2.974,4.96,6.56,5.972,10.348l2.188-2.189c9.013-9.013,23.623-9.012,32.636,0.001c9.012,9.012,9.013,23.622,0.001,32.635
			l-2.19,2.189c3.79,1.012,7.376,2.996,10.348,5.97c9.012,9.012,9.013,23.623,0.001,32.635l-10.349,10.349
			c3.79,1.011,7.374,2.996,10.348,5.97c9.012,9.014,9.012,23.624-0.001,32.637l-1.577,1.577L69.294,221.556z"/>
		<path id="XMLID_37_" style="fill:#FFC170;" d="M150.489,146.981c-13.807-0.001-25.001-11.194-25-25l0,0c0-13.808,11.193-25,25-25
			h94.999c13.809,0,25.002,11.193,25.001,25h5.001c0,13.806-16.193,25-30,25H150.489z"/>
		
			<rect id="XMLID_36_" x="216.552" y="73.042" transform="matrix(0.7071 -0.7071 0.7071 0.7071 -21.0051 225.3725)" style="fill:#FFC170;" width="90" height="130"/>
	</g>
	
		<rect id="XMLID_34_" x="3.159" y="105.59" transform="matrix(0.7071 -0.7071 0.7071 0.7071 -76.8966 65.5344)" style="fill:#0052B4;" width="75" height="40"/>
	
		<rect id="XMLID_33_" x="56.191" y="52.556" transform="matrix(0.7071 -0.7071 0.7071 0.7071 -23.8634 87.5017)" style="fill:#006DF0;" width="75" height="40"/>
	
		<rect id="XMLID_32_" x="236.504" y="52.557" transform="matrix(0.7071 0.7071 -0.7071 0.7071 131.5609 -172.4997)" style="fill:#0052B4;" width="75" height="39.999"/>
	
		<rect id="XMLID_3_" x="289.537" y="105.59" transform="matrix(0.7071 0.7071 -0.7071 0.7071 184.592 -194.4655)" style="fill:#006DF0;" width="75" height="40"/>
</g>
<g>
</g>
<g>
</g>
<g>
</g>
<g>
</g>
<g>
</g>
<g>
</g>
<g>
</g>
<g>
</g>
<g>
</g>
<g>
</g>
<g>
</g>
<g>
</g>
<g>
</g>
<g>
</g>
<g>
</g>
</svg>
