<?xml version="1.0" encoding="iso-8859-1"?>
<!-- Generator: Adobe Illustrator 19.0.0, SVG Export Plug-In . SVG Version: 6.00 Build 0)  -->
<svg version="1.1" id="Capa_1" xmlns="http://www.w3.org/2000/svg" xmlns:xlink="http://www.w3.org/1999/xlink" x="0px" y="0px"
	 viewBox="0 0 91 91" style="enable-background:new 0 0 91 91;" xml:space="preserve">
<g>
	<rect x="3.5" y="84" style="fill:#2AB9F7;" width="84" height="4"/>
	<path style="fill:#2AB9F7;" d="M3.5,9h84V3h-84V9z M84.578,4.936c0.58,0,1.049,0.47,1.049,1.049c0,0.58-0.47,1.05-1.049,1.05
		s-1.049-0.47-1.049-1.05C83.528,5.406,83.998,4.936,84.578,4.936z M80.434,4.936c0.58,0,1.049,0.47,1.049,1.049
		c0,0.58-0.47,1.05-1.049,1.05s-1.049-0.47-1.049-1.05C79.384,5.406,79.854,4.936,80.434,4.936z M76.289,4.936
		c0.58,0,1.049,0.47,1.049,1.049c0,0.58-0.47,1.05-1.049,1.05c-0.58,0-1.049-0.47-1.049-1.05C75.24,5.406,75.709,4.936,76.289,4.936
		z"/>
	<path d="M0.5,0v9l0,0v3l0,0v69l0,0v3l0,0v7h90V0H0.5z M3.5,84h84v4h-84V84z M87.5,9h-84V3h84V9z M3.5,12h84v69h-84V12z"/>
	<circle cx="76.289" cy="5.986" r="1.049"/>
	<circle cx="80.434" cy="5.986" r="1.049"/>
	<circle cx="84.578" cy="5.986" r="1.049"/>
	<path style="fill:#2AB9F7;" d="M67.269,33.443c0.069,0.062,0.117,0.107,0.134,0.123l0.276,0.265l5.205,16.298l7.891-2.52
		L75.42,30.84L67.269,33.443z"/>
	<path d="M70.473,54.049l14.073-4.495L77.365,27.07l-13.128,4.191c-2.601-1.549-6.647-3.261-11.59-2.998
		c-3.878,0.22-7.709,2.078-10.546,4.42c-1.604-0.437-4.942-0.92-12.156-1.543l0.953-2.985l-15.813-5.049L6.932,48.637l15.813,5.051
		l0.857-2.684c0.184,0.032,0.353,0.067,0.55,0.099c2.332,0.379,4.026,0.785,4.598,2.58c0.871,2.737,6.144,6.086,18.2,11.557
		c0.808,0.366,1.39,0.629,1.641,0.759c0.949,0.491,3.801,1.456,6.548,1.456c0.995,0,1.976-0.126,2.848-0.447
		c1.257-0.464,2.165-1.303,2.623-2.429c0.537-1.316-0.278-2.413-0.817-3.138c-0.167-0.226-0.436-0.586-0.51-0.78
		c0.282-0.123,1.041-0.149,1.464-0.164c1.167-0.04,2.621-0.09,3.284-1.369c0.602-1.164,0.128-2.393-0.252-3.379
		c-0.063-0.164-0.142-0.369-0.206-0.557c0.102-0.023,0.205-0.048,0.297-0.068c1.236-0.283,3.104-0.711,4.045-2.331
		c0.152-0.262,0.27-0.541,0.355-0.836c0.518-0.094,1.004-0.194,1.44-0.292L70.473,54.049z M31.608,52.772
		c-1.173-3.688-4.805-4.278-6.975-4.631c-0.037-0.006-0.074-0.013-0.111-0.019l4.487-14.051c3.988,0.345,8.128,0.786,10.568,1.152
		c-0.524,0.652-0.971,1.309-1.305,1.953c-1.115,2.148-0.765,3.536-0.275,4.322c1.17,1.877,2.667,3.075,4.215,3.375
		c1.042,0.202,2.067-0.018,2.888-0.618l0.474-0.353c3.767-2.829,5.59-3.58,6.489-3.601c0.053-0.001,0.114-0.01,0.161-0.006
		c0.06,0.057,0.13,0.14,0.202,0.228c0.616,0.757,1.645,2.577,2.365,3.853c2.161,3.828,3.71,6.405,5.494,7.325
		c0.668,0.345,1.498,0.532,2.394,0.621c-0.824,0.21-1.599,0.51-1.981,1.31c-0.523,1.098-0.076,2.259,0.284,3.191
		c0.07,0.181,0.165,0.428,0.236,0.646c-0.192,0.013-0.403,0.02-0.573,0.025c-1.27,0.044-3.189,0.109-4.046,1.767
		c-0.887,1.713,0.202,3.179,0.787,3.966c0.099,0.132,0.23,0.309,0.32,0.447c-0.125,0.173-0.343,0.362-0.755,0.514
		c-2.021,0.746-5.858-0.276-6.981-0.857c-0.273-0.142-0.904-0.43-1.78-0.827C34.478,56.285,31.915,53.737,31.608,52.772z
		 M27.128,30.102L20.8,49.916l-10.098-3.225l6.328-19.814L27.128,30.102z M61.659,49.037c-1.12-0.578-3.007-3.921-4.256-6.134
		c-2.005-3.552-3.033-5.271-4.459-5.537c-0.243-0.045-0.492-0.066-0.748-0.066c-2.46,0-5.489,2.001-8.425,4.206l-0.441,0.329
		c-0.094,0.067-0.253,0.152-0.548,0.095c-0.262-0.051-1.198-0.346-2.234-2.007c-0.042-0.105-0.043-0.74,0.712-1.924
		c1.954-3.061,6.668-6.463,11.558-6.739c6.315-0.381,11.092,3.271,12.247,4.242l4.21,13.184
		C66.51,49.311,62.999,49.728,61.659,49.037z M72.885,50.128L67.68,33.83l-0.276-0.265c-0.017-0.016-0.065-0.061-0.134-0.123
		l8.151-2.603l5.355,16.769L72.885,50.128z"/>
	
		<rect x="8.515" y="33.096" transform="matrix(-0.3042 0.9526 -0.9526 -0.3042 61.246 32.0594)" style="fill:#2AB9F7;" width="20.8" height="10.6"/>
	<path style="fill:#FFE101;" d="M56.95,64.191c0.412-0.151,0.63-0.341,0.755-0.514c-0.09-0.139-0.221-0.315-0.32-0.447
		c-0.585-0.787-1.674-2.253-0.787-3.966c0.857-1.657,2.776-1.723,4.046-1.767c0.169-0.006,0.38-0.013,0.573-0.025
		c-0.072-0.219-0.167-0.466-0.236-0.646c-0.359-0.933-0.807-2.094-0.284-3.191c0.382-0.8,1.157-1.1,1.981-1.31
		c-0.896-0.09-1.726-0.276-2.394-0.621c-1.783-0.92-3.333-3.497-5.494-7.325c-0.72-1.276-1.749-3.096-2.365-3.853l-0.363-0.222
		c-0.899,0.021-2.722,0.772-6.489,3.601l-0.474,0.353c-0.821,0.601-1.846,0.82-2.888,0.618c-1.548-0.3-3.045-1.498-4.215-3.375
		c-0.49-0.786-0.839-2.174,0.275-4.322c0.334-0.644,0.781-1.301,1.305-1.953c-2.44-0.366-6.58-0.807-10.568-1.152l-4.487,14.051
		c0.037,0.006,0.074,0.013,0.111,0.019c2.17,0.353,5.802,0.942,6.975,4.631c0.307,0.965,2.87,3.513,16.582,9.734
		c0.876,0.397,1.506,0.686,1.78,0.827C51.092,63.915,54.929,64.938,56.95,64.191z"/>
	<path style="fill:#FFE101;" d="M69.275,48.686l-4.21-13.184c-1.155-0.971-5.932-4.623-12.247-4.242
		c-4.89,0.276-9.604,3.679-11.558,6.739c-0.755,1.184-0.753,1.818-0.712,1.924c1.036,1.661,1.972,1.956,2.234,2.007
		c0.295,0.058,0.454-0.027,0.548-0.095l0.441-0.329c2.936-2.205,5.965-4.206,8.425-4.206c0.256,0,0.505,0.021,0.748,0.066
		c1.427,0.266,2.454,1.985,4.459,5.537c1.249,2.213,3.136,5.556,4.256,6.134C62.999,49.728,66.51,49.311,69.275,48.686z"/>
</g>
<g>
</g>
<g>
</g>
<g>
</g>
<g>
</g>
<g>
</g>
<g>
</g>
<g>
</g>
<g>
</g>
<g>
</g>
<g>
</g>
<g>
</g>
<g>
</g>
<g>
</g>
<g>
</g>
<g>
</g>
</svg>
