<?xml version="1.0" encoding="iso-8859-1"?>
<!-- Generator: Adobe Illustrator 18.0.0, SVG Export Plug-In . SVG Version: 6.00 Build 0)  -->
<!DOCTYPE svg PUBLIC "-//W3C//DTD SVG 1.1//EN" "http://www.w3.org/Graphics/SVG/1.1/DTD/svg11.dtd">
<svg version="1.1" id="Capa_1" xmlns="http://www.w3.org/2000/svg" xmlns:xlink="http://www.w3.org/1999/xlink" x="0px" y="0px"
	 viewBox="0 0 412.92 412.92" style="enable-background:new 0 0 412.92 412.92;" xml:space="preserve">
<path style="fill:#7C6655;" d="M162.457,126.474c-4.143,0-7.5-3.358-7.5-7.5v-17.32c0-4.142,3.357-7.5,7.5-7.5s7.5,3.358,7.5,7.5
	v17.32C169.957,123.116,166.6,126.474,162.457,126.474z"/>
<path style="fill:#7C6655;" d="M250.457,126.474c-4.143,0-7.5-3.358-7.5-7.5v-17.32c0-4.142,3.357-7.5,7.5-7.5s7.5,3.358,7.5,7.5
	v17.32C257.957,123.116,254.6,126.474,250.457,126.474z"/>
<path style="fill:#E77200;" d="M386.86,72.607l26.06,62.54l-114.37-23.91l-0.68,0.12l-3.78-22.38
	c-24.9-6.87-56.27-10.31-87.63-10.31c-31.37,0-62.74,3.44-87.63,10.31l-3.78,22.38l-0.69-0.12L0,135.148l26.05-62.54l31.33-8.13
	c90.2-23.38,207.95-23.38,298.15,0L386.86,72.607z"/>
<polygon style="fill:#C65C05;" points="412.92,135.148 402.49,164.327 303.47,144.527 297.87,111.357 298.55,111.238 "/>
<path style="fill:#88C9B3;" d="M341.31,177.977L376,334.258h-63.77H131.69h-28.72H36.92l34.68-156.28l56.14-12l7.22-47h143l7.21,47
	L341.31,177.977z M279.46,232.008c0-40.32-32.69-73-73-73c-40.32,0-73,32.68-73,73s32.68,73,73,73
	C246.77,305.008,279.46,272.328,279.46,232.008z"/>
<path style="fill:#FCF4DE;" d="M206.46,159.008c40.31,0,73,32.68,73,73s-32.69,73-73,73c-40.32,0-73-32.68-73-73
	S166.14,159.008,206.46,159.008z M227.51,232.008c0-11.63-9.43-21.05-21.05-21.05c-11.63,0-21.06,9.42-21.06,21.05
	c0,11.63,9.43,21.06,21.06,21.06C218.08,253.068,227.51,243.637,227.51,232.008z"/>
<path style="fill:#7C6655;" d="M206.46,210.958c11.62,0,21.05,9.42,21.05,21.05c0,11.63-9.43,21.06-21.05,21.06
	c-11.63,0-21.06-9.43-21.06-21.06C185.4,220.378,194.83,210.958,206.46,210.958z"/>
<polygon style="fill:#C65C05;" points="115.05,111.357 109.44,144.527 10.42,164.327 0,135.148 114.36,111.238 "/>
<polygon style="fill:#51B7A6;" points="312.23,334.257 131.69,334.257 102.97,334.257 36.92,334.257 36.92,365.978 84.64,365.978 
	113.36,365.978 293.9,365.978 376,365.978 376,334.257 "/>
<g>
</g>
<g>
</g>
<g>
</g>
<g>
</g>
<g>
</g>
<g>
</g>
<g>
</g>
<g>
</g>
<g>
</g>
<g>
</g>
<g>
</g>
<g>
</g>
<g>
</g>
<g>
</g>
<g>
</g>
</svg>
