<?xml version="1.0" encoding="iso-8859-1"?>
<!-- Generator: Adobe Illustrator 19.0.0, SVG Export Plug-In . SVG Version: 6.00 Build 0)  -->
<svg version="1.1" id="Capa_1" xmlns="http://www.w3.org/2000/svg" xmlns:xlink="http://www.w3.org/1999/xlink" x="0px" y="0px"
	 viewBox="0 0 512 512" style="enable-background:new 0 0 512 512;" xml:space="preserve">
<g>
	<g>
		<rect x="128" y="256" style="fill:#5C546A;" width="16" height="136"/>
	</g>
	<g>
		<path style="fill:#8A8895;" d="M128,248h-24c-4.418,0-8-3.582-8-8v-48c0-4.418,3.582-8,8-8h24V248z"/>
	</g>
	<g>
		<path style="fill:#7E5C62;" d="M323.625,0H198.036c-18.17,0-33.444,12.604-37.558,29.524
			c-33.256,4.227-59.049,32.699-59.049,67.082v48.303c0,24.897,10.569,48.123,28.982,64.63V154.57
			c0-26.633,21.67-48.303,48.303-48.303h164.231c21.312,0,38.643,17.335,38.643,38.643v64.619
			c18.417-16.503,28.982-39.729,28.982-64.619V86.946C410.57,39.006,371.569,0,323.625,0z"/>
	</g>
	<g>
		<g>
			<path style="fill:#FCC78D;" d="M256,347.784c-33.744,0-65.411-20.38-88-43.784c0-2,0,33.833,0,40
				c2.439,1.491,1.138,18.88,1.507,21.926c4.821,39.228,42.001,68.804,86.493,68.804c44.482,0,81.663-29.581,86.493-68.804
				c0.374-3.05-0.969-20.439,1.507-21.926c0-16.667,0-29.833,0-40C321.411,327.403,289.744,347.784,256,347.784z"/>
		</g>
	</g>
	<g>
		<g>
			<path style="fill:#FFB87F;" d="M341.063,311.682c-22.4,22.312-52.218,36.102-85.063,36.102c-33.744,0-65.411-20.38-88-43.784
				c0,10.259,0,46.333,0,40c2.439,1.491,1.138,18.88,1.507,21.926c2.131,17.34,10.6,32.778,23.213,44.625
				C250.887,402.359,316.906,344.923,341.063,311.682z"/>
		</g>
	</g>
	<g>
		<path style="fill:#5C546A;" d="M144,264h-24c-4.418,0-8-3.582-8-8v-80c0-4.418,3.582-8,8-8h24V264z"/>
	</g>
	<g>
		<path style="fill:#8A8895;" d="M384,248h24c4.418,0,8-3.582,8-8v-48c0-4.418-3.582-8-8-8h-24V248z"/>
	</g>
	<g>
		<path style="fill:#5C546A;" d="M368,264h24c4.418,0,8-3.582,8-8v-80c0-4.418-3.582-8-8-8h-24V264z"/>
	</g>
	<g>
		<g>
			<path style="fill:#FFE0B1;" d="M342.946,106.267H178.715c-26.633,0-48.303,21.67-48.303,48.303v57.964
				c0,74.578,56.341,135.249,125.588,135.249s125.588-60.672,125.588-135.249V144.91
				C381.588,123.603,364.258,106.267,342.946,106.267z"/>
		</g>
	</g>
	<g>
		<g>
			<path style="fill:#5C546A;" d="M324,311.313c-19.328,0-39.148-8.672-57.406-25.418c-3.258-2.984-3.477-8.047-0.492-11.301
				c2.992-3.27,8.063-3.473,11.305-0.488c20.18,18.5,42.023,25.191,61.578,18.809c19.133-6.25,34.383-24.691,38.836-46.98
				c0.859-4.328,5.023-7.16,9.414-6.277c4.328,0.863,7.141,5.078,6.273,9.41c-5.57,27.863-25.023,51.043-49.563,59.059
				C337.422,310.258,330.742,311.313,324,311.313z"/>
		</g>
	</g>
	<g>
		<circle style="fill:#8A8895;" cx="272" cy="280" r="16"/>
	</g>
	<g>
		<path style="fill:#527991;" d="M430.659,388.39L376,375.529L256,440l-120-64.471L81.341,388.39
			C52.432,395.192,32,420.99,32,450.689V488c0,13.255,10.745,24,24,24h400c13.255,0,24-10.745,24-24v-37.311
			C480,420.99,459.568,395.192,430.659,388.39z"/>
	</g>
	<g>
		<rect x="248" y="432" style="fill:#5C546A;" width="16" height="80"/>
	</g>
	<g>
		<path style="fill:#5D647F;" d="M256,432l-48.415,42.363c-7.884,6.899-20.162,4.485-24.847-4.886L136,376l32-32L256,432z"/>
	</g>
	<g>
		<path style="fill:#5D647F;" d="M256,432l48.415,42.363c7.884,6.899,20.162,4.485,24.847-4.886L376,376l-32-32L256,432z"/>
	</g>
</g>
<g>
</g>
<g>
</g>
<g>
</g>
<g>
</g>
<g>
</g>
<g>
</g>
<g>
</g>
<g>
</g>
<g>
</g>
<g>
</g>
<g>
</g>
<g>
</g>
<g>
</g>
<g>
</g>
<g>
</g>
</svg>
