<?xml version="1.0" encoding="iso-8859-1"?>
<!-- Generator: Adobe Illustrator 18.0.0, SVG Export Plug-In . SVG Version: 6.00 Build 0)  -->
<!DOCTYPE svg PUBLIC "-//W3C//DTD SVG 1.1//EN" "http://www.w3.org/Graphics/SVG/1.1/DTD/svg11.dtd">
<svg version="1.1" id="Capa_1" xmlns="http://www.w3.org/2000/svg" xmlns:xlink="http://www.w3.org/1999/xlink" x="0px" y="0px"
	 viewBox="0 0 417.982 417.982" style="enable-background:new 0 0 417.982 417.982;" xml:space="preserve">
<rect x="224.605" y="45.07" style="fill:#FCF4DE;" width="140.96" height="48.29"/>
<path style="fill:#51B7A6;" d="M399.715,306.42v33.69c0,13.01-10.55,23.57-23.57,23.57h-238.01v-35.3h17.61h222.01
	C389.885,328.38,399.715,318.55,399.715,306.42z"/>
<path style="fill:#88C9B3;" d="M399.715,284.92v21.5c0,12.13-9.83,21.96-21.96,21.96h-222.01c19.17,0,34.71-15.53,34.71-34.7v-27.71
	h-0.05c0.03-0.58,0.05-1.17,0.05-1.76V32.7c0-17.86-14.48-32.34-32.34-32.34V0h219.64c12.13,0,21.96,9.83,21.96,21.97V284.92z
	 M369.735,280.98v-32.07h-32.08v32.07H369.735z M369.735,221.96v-32.08h-32.08v32.08H369.735z M369.735,162.93v-32.08h-32.08v32.08
	H369.735z M365.565,93.36V45.07h-32.61h-33.16h-75.19v48.29h47.28h33.17H365.565z M311.125,280.98v-32.07h-32.08v32.07H311.125z
	 M311.125,221.96v-32.08h-32.08v32.08H311.125z M311.125,162.93v-32.08h-32.08v32.08H311.125z M252.515,280.98v-32.07h-32.08v32.07
	H252.515z M252.515,221.96v-32.08h-32.08v32.08H252.515z M252.515,162.93v-32.08h-32.08v32.08H252.515z"/>
<path style="fill:#C65C05;" d="M138.135,328.38h-17.61c-19.17,0-34.71-15.53-34.71-34.7v-27.71h0.05
	c0.91,17.04,15.02,30.58,32.29,30.58h39.96c17.27,0,31.38-13.54,32.29-30.58h0.05v27.71c0,19.17-15.54,34.7-34.71,34.7H138.135z"/>
<path style="fill:#E77200;" d="M190.455,32.7v231.51c0,0.59-0.02,1.18-0.05,1.76c-0.91,17.04-15.02,30.58-32.29,30.58h-39.96
	c-17.27,0-31.38-13.54-32.29-30.58c-0.03-0.58-0.05-1.17-0.05-1.76V32.7c0-17.86,14.48-32.34,32.34-32.34h39.96
	C175.975,0.36,190.455,14.84,190.455,32.7z"/>
<path style="fill:#88C9B3;" d="M158.115,0v0.36h-39.96c-17.86,0-32.34,14.48-32.34,32.34v231.51c0,0.59,0.02,1.18,0.05,1.76h-0.05
	v27.71c0,19.17,15.54,34.7,34.71,34.7h-38.49c-12.14,0-21.97-9.83-21.97-21.96v-21.5V55.61V21.97C60.065,9.83,69.895,0,82.035,0
	H158.115z"/>
<path style="fill:#51B7A6;" d="M138.135,328.38v35.3h-54.5c-13.02,0-23.57-10.56-23.57-23.57v-33.69c0,12.13,9.83,21.96,21.97,21.96
	h38.49H138.135z"/>
<path style="fill:#88C9B3;" d="M103.839,417.982H60.065c-23.084,0-41.798-18.713-41.798-41.798V89.906
	c0-23.047,18.75-41.798,41.797-41.798v15c-14.776,0-26.797,12.021-26.797,26.798v286.278c0,14.8,11.998,26.798,26.798,26.798h43.774
	c14.8,0,26.797-11.998,26.797-26.797V321.01c0-4.142,3.358-7.5,7.5-7.5h0c4.142,0,7.5,3.358,7.5,7.5v55.174
	C145.636,399.268,126.923,417.982,103.839,417.982z"/>
<rect x="234.605" y="55.07" style="fill:#E77200;" width="120.96" height="28.29"/>
<g>
	<rect x="337.655" y="256.91" style="fill:#665040;" width="32.08" height="32.07"/>
	<rect x="337.655" y="197.88" style="fill:#665040;" width="32.08" height="32.08"/>
	<rect x="337.655" y="138.85" style="fill:#665040;" width="32.08" height="32.08"/>
	<rect x="279.045" y="256.91" style="fill:#665040;" width="32.08" height="32.07"/>
	<rect x="279.045" y="197.88" style="fill:#665040;" width="32.08" height="32.08"/>
	<rect x="279.045" y="138.85" style="fill:#665040;" width="32.08" height="32.08"/>
	<rect x="220.435" y="256.91" style="fill:#665040;" width="32.08" height="32.07"/>
	<rect x="220.435" y="197.88" style="fill:#665040;" width="32.08" height="32.08"/>
	<rect x="220.435" y="138.85" style="fill:#665040;" width="32.08" height="32.08"/>
</g>
<g>
	<rect x="337.655" y="248.91" style="fill:#7C6655;" width="32.08" height="32.07"/>
	<rect x="337.655" y="189.88" style="fill:#7C6655;" width="32.08" height="32.08"/>
	<rect x="337.655" y="130.85" style="fill:#7C6655;" width="32.08" height="32.08"/>
	<rect x="279.045" y="248.91" style="fill:#7C6655;" width="32.08" height="32.07"/>
	<rect x="279.045" y="189.88" style="fill:#7C6655;" width="32.08" height="32.08"/>
	<rect x="279.045" y="130.85" style="fill:#7C6655;" width="32.08" height="32.08"/>
	<rect x="220.435" y="248.91" style="fill:#7C6655;" width="32.08" height="32.07"/>
	<rect x="220.435" y="189.88" style="fill:#7C6655;" width="32.08" height="32.08"/>
	<rect x="220.435" y="130.85" style="fill:#7C6655;" width="32.08" height="32.08"/>
</g>
<polygon style="fill:#FCF4DE;" points="332.955,45.07 305.055,93.36 271.885,93.36 299.795,45.07 "/>
<g>
</g>
<g>
</g>
<g>
</g>
<g>
</g>
<g>
</g>
<g>
</g>
<g>
</g>
<g>
</g>
<g>
</g>
<g>
</g>
<g>
</g>
<g>
</g>
<g>
</g>
<g>
</g>
<g>
</g>
</svg>
